<?xml version="1.0" encoding="utf-8"?>
<!-- Generator: Adobe Illustrator 14.0.0, SVG Export Plug-In . SVG Version: 6.00 Build 43363)  -->
<!DOCTYPE svg PUBLIC "-//W3C//DTD SVG 1.1//EN" "http://www.w3.org/Graphics/SVG/1.1/DTD/svg11.dtd">
<svg version="1.1" id="Layer_1" xmlns="http://www.w3.org/2000/svg" xmlns:xlink="http://www.w3.org/1999/xlink" x="0px" y="0px"
	 width="876px" height="497.975px" viewBox="0 0 876 497.975" enable-background="new 0 0 876 497.975" xml:space="preserve">
<g id="Layer_4">
</g>
<g id="Layer_3">
	<g>
		<g>
			<g>
				<polygon fill="#FFFFFF" points="795.162,312.58 81.945,312.58 81.945,41.236 656.809,41.236 688.802,206.262 795.162,252.767 
									"/>
			</g>
			<g>
				<path fill="#214296" d="M796.454,313.873H80.652V39.943h577.223l32.067,165.405l106.512,46.571V313.873L796.454,313.873z
					 M83.238,311.287h710.63V253.61l-106.207-46.437l-0.129-0.667l-31.79-163.979H83.238V311.287z"/>
			</g>
		</g>
		<g>
			<g>
				<path fill="#5679D3" d="M664.574,53.034H82.754c-3.408,0-6.172-2.764-6.172-6.173V33.465c0-3.408,2.764-6.172,6.172-6.172H658.9
					L664.574,53.034z"/>
			</g>
			<g>
				<path fill="#214296" d="M666.184,54.327H82.754c-4.116,0-7.465-3.349-7.465-7.465V33.465c0-4.116,3.349-7.465,7.465-7.465
					h577.186L666.184,54.327z M82.754,28.586c-2.69,0-4.879,2.188-4.879,4.879v13.397c0,2.69,2.188,4.879,4.879,4.879h580.211
					l-5.104-23.155H82.754z"/>
			</g>
		</g>
		<g>
			<g>
				<path fill="#2C58C8" d="M76.582,312.58v83.621l84.189,18.172c-0.133-1.877-0.225-3.767-0.225-5.679
					c0-43.802,35.508-79.309,79.309-79.309s79.308,35.507,79.308,79.309c0,1.911-0.092,3.802-0.225,5.679h255.614
					c-0.133-1.877-0.225-3.768-0.225-5.679c0-43.802,35.508-79.309,79.309-79.309c43.802,0,79.31,35.507,79.31,79.309
					c0,1.911-0.092,3.802-0.227,5.679l66.587-16.566l0.109-85.227H76.582L76.582,312.58z"/>
			</g>
			<g>
				<path fill="#214296" d="M731.304,416.058l0.126-1.775c0.151-2.118,0.223-3.895,0.223-5.587
					c0-43.019-34.997-78.016-78.016-78.016c-43.018,0-78.015,34.997-78.015,78.016c0,1.692,0.07,3.469,0.222,5.587l0.1,1.385
					H317.551l0.098-1.384c0.151-2.135,0.222-3.91,0.222-5.588c0-43.019-34.997-78.016-78.015-78.016s-78.016,34.997-78.016,78.016
					c0,1.686,0.07,3.461,0.222,5.587l0.122,1.72l-86.895-18.756v-85.958h725.422l-0.112,87.53L731.304,416.058z M320.318,413.08
					h252.855c-0.094-1.595-0.138-3.015-0.138-4.386c0-44.443,36.157-80.602,80.601-80.602c44.444,0,80.602,36.157,80.602,80.602
					c0,1.259-0.037,2.559-0.115,3.997l63.893-15.896l0.106-82.923H77.875v81.284l81.498,17.591
					c-0.081-1.466-0.119-2.782-0.119-4.054c0-44.443,36.157-80.602,80.602-80.602c44.443,0,80.601,36.157,80.601,80.602
					C320.456,410.056,320.412,411.475,320.318,413.08z"/>
			</g>
		</g>
		<g>
			<g>
				<g>
					<circle fill="#616161" cx="239.855" cy="407.801" r="63.144"/>
				</g>
				<g>
					<path fill="#3A3A3A" d="M239.855,471.975c-35.386,0-64.174-28.787-64.174-64.174c0-35.386,28.788-64.174,64.174-64.174
						c35.385,0,64.173,28.788,64.173,64.174C304.028,443.188,275.24,471.975,239.855,471.975z M239.855,345.686
						c-34.251,0-62.115,27.865-62.115,62.115s27.864,62.115,62.115,62.115c34.25,0,62.114-27.865,62.114-62.115
						S274.105,345.686,239.855,345.686z"/>
				</g>
			</g>
			<g>
				<g>
					<circle fill="#BAA898" cx="239.855" cy="407.801" r="38.093"/>
				</g>
				<g>
					<path fill="#3A3A3A" d="M239.855,446.515c-21.348,0-38.715-17.366-38.715-38.714c0-21.347,17.367-38.714,38.715-38.714
						c21.347,0,38.714,17.367,38.714,38.714C278.569,429.148,261.202,446.515,239.855,446.515z M239.855,370.329
						c-20.662,0-37.473,16.81-37.473,37.472s16.811,37.473,37.473,37.473s37.472-16.811,37.472-37.473
						S260.518,370.329,239.855,370.329z"/>
				</g>
			</g>
		</g>
		<g>
			<g>
				<g>
					<circle fill="#616161" cx="655.361" cy="407.801" r="63.144"/>
				</g>
				<g>
					<path fill="#3A3A3A" d="M655.36,471.975c-35.386,0-64.173-28.787-64.173-64.174c0-35.386,28.787-64.174,64.173-64.174
						s64.174,28.788,64.174,64.174C719.534,443.188,690.746,471.975,655.36,471.975z M655.36,345.686
						c-34.25,0-62.114,27.865-62.114,62.115s27.864,62.115,62.114,62.115s62.114-27.865,62.114-62.115
						S689.61,345.686,655.36,345.686z"/>
				</g>
			</g>
			<g>
				<g>
					<circle fill="#BAA898" cx="655.361" cy="407.801" r="38.093"/>
				</g>
				<g>
					<path fill="#3A3A3A" d="M655.36,446.515c-21.348,0-38.714-17.366-38.714-38.714c0-21.347,17.366-38.714,38.714-38.714
						s38.715,17.367,38.715,38.714C694.075,429.148,676.708,446.515,655.36,446.515z M655.36,370.329
						c-20.662,0-37.473,16.81-37.473,37.472s16.811,37.473,37.473,37.473c20.661,0,37.473-16.811,37.473-37.473
						S676.021,370.329,655.36,370.329z"/>
				</g>
			</g>
		</g>
		<g>
			<g>
				<polygon fill="#ABBCE9" points="672.189,206.485 592.217,206.485 592.217,83.213 650.13,83.213 				"/>
			</g>
			<g>
				<path fill="#ABBCE9" d="M672.962,207.132H591.57V82.566h59.101l0.096,0.532L672.962,207.132z M592.863,205.839h78.554
					l-21.828-121.98h-56.726V205.839z"/>
			</g>
		</g>
		<g>
			<g>
				<rect x="467.893" y="83.213" fill="#ABBCE9" width="110.146" height="123.272"/>
			</g>
			<g>
				<path fill="#ABBCE9" d="M578.686,207.132H467.246V82.566h111.439V207.132z M468.538,205.839h108.854V83.859H468.538V205.839z"/>
			</g>
		</g>
		<g>
			<path fill="#214296" d="M553.766,398.751h-96.26V75.944h129.035v259.617l-0.385,0.336
				c-18.306,15.908-29.771,37.876-32.286,61.852L553.766,398.751z M459.742,396.514h92.014c2.766-23.983,14.291-45.938,32.549-61.97
				V78.182H459.742V396.514z"/>
		</g>
		<g>
			<g>
				<g>
					<rect x="121.637" y="83.213" fill="#5679D3" width="306.272" height="189.157"/>
				</g>
				<g>
					<path fill="#FFFFFF" d="M429.202,273.663H120.344V81.92h308.858V273.663z M122.93,271.077h303.687V84.506H122.93V271.077z"/>
				</g>
			</g>
			<g>
				<g>
					<rect x="121.637" y="83.213" fill="#A8BEDF" width="163.334" height="189.157"/>
				</g>
				<g>
					<path fill="#FFFFFF" d="M285.915,273.313H120.692V82.269h165.223V273.313z M122.581,271.426h161.445V84.157H122.581V271.426z"
						/>
				</g>
			</g>
			<g>
				<g>
					<path fill="#FFFFFF" d="M117.533,79.108v197.368h314.479V79.108H117.533z M284.971,87.316v180.951h-78.752V87.316H284.971z
						 M125.741,87.316h72.27v180.951h-72.27V87.316z M423.805,268.269H293.179V87.316h130.625V268.269z"/>
				</g>
				<g>
					<path fill="#214296" d="M433.306,277.769H116.24V77.815h317.064L433.306,277.769L433.306,277.769z M118.826,275.183H430.72
						V80.401H118.826V275.183z M425.098,269.562H291.886V86.023h133.212V269.562z M294.472,266.976h128.04V88.609h-128.04V266.976z
						 M286.264,269.562h-81.339V86.023h81.339V269.562z M207.511,266.976h76.167V88.609h-76.167V266.976L207.511,266.976z
						 M199.304,269.562h-74.855V86.023h74.855V269.562z M127.034,266.976h69.684V88.609h-69.684V266.976z"/>
				</g>
			</g>
		</g>
		<g>
			<g>
				<g>
					<g>
						<polygon fill="#D97994" points="108.151,132.351 85.32,132.351 114.118,82.574 133.851,82.574 						"/>
					</g>
					<g>
						<path fill="#9C425B" d="M108.545,132.997H84.199l29.546-51.069h21.167L108.545,132.997z M86.441,131.704h21.315l25.032-48.483
							H114.49L86.441,131.704z"/>
					</g>
				</g>
				<g>
					<g>
						<polygon fill="#D97994" points="153.966,132.351 131.135,132.351 153.715,82.574 173.447,82.574 						"/>
					</g>
					<g>
						<path fill="#9C425B" d="M154.407,132.997h-24.275l23.166-51.069h21.097L154.407,132.997z M132.139,131.704h21.386
							L172.5,83.221h-18.369L132.139,131.704z"/>
					</g>
				</g>
				<g>
					<g>
						<polygon fill="#D97994" points="199.78,132.351 176.949,132.351 193.312,82.574 213.044,82.574 						"/>
					</g>
					<g>
						<path fill="#9C425B" d="M200.276,132.997h-24.221l16.787-51.069h21.042L200.276,132.997z M177.842,131.704h21.441
							l12.919-48.483h-18.423L177.842,131.704z"/>
					</g>
				</g>
				<g>
					<g>
						<polygon fill="#D97994" points="245.594,132.351 222.764,132.351 232.908,82.574 252.641,82.574 						"/>
					</g>
					<g>
						<path fill="#9C425B" d="M246.155,132.997h-24.184l10.408-51.069h21.005L246.155,132.997z M223.555,131.704h21.478
							l6.863-48.483h-18.46L223.555,131.704z"/>
					</g>
				</g>
				<g>
					<g>
						<polygon fill="#D97994" points="291.408,132.351 268.578,132.351 272.505,82.574 292.237,82.574 						"/>
					</g>
					<g>
						<path fill="#9C425B" d="M292.044,132.997h-24.166l4.029-51.069h20.987L292.044,132.997z M269.277,131.704h21.495l0.808-48.483
							h-18.478L269.277,131.704z"/>
					</g>
				</g>
				<g>
					<g>
						<polygon fill="#D97994" points="337.223,132.351 314.392,132.351 312.102,82.574 331.834,82.574 						"/>
					</g>
					<g>
						<path fill="#9C425B" d="M337.943,132.997h-24.169l-2.35-51.069h20.989L337.943,132.997z M315.01,131.704h21.493l-5.249-48.483
							h-18.476L315.01,131.704z"/>
					</g>
				</g>
				<g>
					<g>
						<polygon fill="#D97994" points="383.037,132.351 360.206,132.351 351.698,82.574 371.431,82.574 						"/>
					</g>
					<g>
						<path fill="#9C425B" d="M383.852,132.997h-24.19l-8.729-51.069h21.012L383.852,132.997z M360.752,131.704h21.471
							l-11.306-48.483h-18.452L360.752,131.704z"/>
					</g>
				</g>
				<g>
					<g>
						<polygon fill="#D97994" points="428.852,132.351 406.021,132.351 391.295,82.574 411.027,82.574 						"/>
					</g>
					<g>
						<path fill="#9C425B" d="M429.77,132.997h-24.231L390.43,81.928h21.054L429.77,132.997z M406.504,131.704h21.43l-17.36-48.483
							H392.16L406.504,131.704z"/>
					</g>
				</g>
				<g>
					<polygon fill="#FFFFFF" points="131.135,132.351 108.304,132.351 133.982,82.574 153.715,82.574 					"/>
				</g>
				<g>
					<path fill="#5679D3" d="M131.135,133.118h-22.831c-0.268,0-0.516-0.14-0.655-0.368c-0.139-0.229-0.149-0.514-0.026-0.751
						L133.3,82.223c0.132-0.256,0.396-0.416,0.683-0.416h19.732c0.261,0,0.504,0.133,0.645,0.352
						c0.142,0.22,0.162,0.495,0.054,0.733l-22.579,49.776C131.71,132.941,131.437,133.118,131.135,133.118z M109.563,131.583h21.077
						l21.883-48.241H134.45L109.563,131.583z"/>
				</g>
				<g>
					<polygon fill="#FFFFFF" points="176.949,132.351 154.118,132.351 173.579,82.574 193.312,82.574 					"/>
				</g>
				<g>
					<path fill="#5679D3" d="M176.949,133.118h-22.831c-0.253,0-0.49-0.125-0.634-0.335c-0.143-0.209-0.173-0.476-0.081-0.712
						l19.461-49.776c0.115-0.295,0.398-0.488,0.715-0.488h19.732c0.246,0,0.478,0.118,0.621,0.317
						c0.145,0.199,0.185,0.456,0.107,0.689l-16.362,49.776C177.574,132.905,177.28,133.118,176.949,133.118z M155.242,131.583
						h21.151l15.857-48.241h-18.148L155.242,131.583z"/>
				</g>
				<g>
					<polygon fill="#FFFFFF" points="222.764,132.351 199.933,132.351 213.176,82.574 232.908,82.574 					"/>
				</g>
				<g>
					<path fill="#5679D3" d="M222.764,133.118h-22.831c-0.238,0-0.464-0.111-0.608-0.3c-0.146-0.189-0.194-0.435-0.134-0.665
						l13.243-49.776c0.09-0.336,0.395-0.57,0.742-0.57h19.732c0.23,0,0.448,0.104,0.594,0.282c0.146,0.179,0.204,0.413,0.158,0.639
						l-10.145,49.776C223.442,132.861,223.128,133.118,222.764,133.118z M200.931,131.583h21.206l9.832-48.241h-18.203
						L200.931,131.583z"/>
				</g>
				<g>
					<polygon fill="#FFFFFF" points="268.578,132.351 245.747,132.351 252.772,82.574 272.505,82.574 					"/>
				</g>
				<g>
					<path fill="#5679D3" d="M268.577,133.118h-22.83c-0.223,0-0.434-0.097-0.579-0.265c-0.146-0.167-0.212-0.39-0.181-0.61
						l7.025-49.776c0.053-0.379,0.377-0.66,0.76-0.66h19.732c0.214,0,0.418,0.09,0.563,0.247c0.145,0.157,0.218,0.367,0.201,0.581
						l-3.927,49.776C269.311,132.811,268.978,133.118,268.577,133.118z M246.63,131.583h21.238l3.806-48.241h-18.235L246.63,131.583
						z"/>
				</g>
				<g>
					<polygon fill="#FFFFFF" points="314.392,132.351 291.562,132.351 292.369,82.574 312.102,82.574 					"/>
				</g>
				<g>
					<path fill="#5679D3" d="M314.392,133.118h-22.83c-0.206,0-0.403-0.083-0.547-0.229c-0.145-0.146-0.224-0.345-0.221-0.551
						l0.808-49.776c0.007-0.419,0.349-0.755,0.768-0.755h19.732c0.41,0,0.747,0.322,0.767,0.732l2.29,49.776
						c0.01,0.209-0.066,0.413-0.211,0.565C314.802,133.032,314.602,133.118,314.392,133.118z M292.341,131.583h21.247l-2.22-48.241
						h-18.244L292.341,131.583z"/>
				</g>
				<g>
					<polygon fill="#FFFFFF" points="360.206,132.351 337.375,132.351 331.966,82.574 351.698,82.574 					"/>
				</g>
				<g>
					<path fill="#5679D3" d="M360.206,133.118h-22.831c-0.392,0-0.721-0.295-0.763-0.685l-5.409-49.776
						c-0.024-0.217,0.046-0.434,0.191-0.596s0.354-0.255,0.571-0.255h19.732c0.374,0,0.693,0.27,0.756,0.639l8.509,49.776
						c0.038,0.223-0.024,0.451-0.17,0.624C360.646,133.018,360.433,133.118,360.206,133.118z M338.063,131.583h21.233l-8.246-48.241
						h-18.229L338.063,131.583z"/>
				</g>
				<g>
					<polygon fill="#FFFFFF" points="406.021,132.351 383.189,132.351 371.562,82.574 391.295,82.574 					"/>
				</g>
				<g>
					<path fill="#5679D3" d="M406.021,133.118H383.19c-0.356,0-0.666-0.246-0.747-0.593l-11.627-49.776
						c-0.054-0.229,0-0.469,0.146-0.651c0.146-0.184,0.367-0.291,0.602-0.291h19.732c0.34,0,0.64,0.224,0.735,0.55l14.727,49.776
						c0.068,0.232,0.023,0.483-0.121,0.677C406.49,133.004,406.263,133.118,406.021,133.118z M383.799,131.583h21.194
						l-14.271-48.241H372.53L383.799,131.583z"/>
				</g>
				<g>
					<polygon fill="#FFFFFF" points="451.835,132.351 429.004,132.351 411.159,82.574 430.892,82.574 					"/>
				</g>
				<g>
					<path fill="#5679D3" d="M451.835,133.118h-22.831c-0.324,0-0.613-0.204-0.723-0.509l-17.846-49.776
						c-0.084-0.235-0.049-0.496,0.096-0.7c0.145-0.204,0.378-0.326,0.628-0.326h19.731c0.31,0,0.588,0.186,0.707,0.47l20.943,49.776
						c0.1,0.237,0.074,0.508-0.067,0.723C452.332,132.989,452.092,133.118,451.835,133.118z M429.544,131.583h21.136l-20.298-48.241
						H412.25L429.544,131.583z"/>
				</g>
			</g>
			<g>
				<g>
					<g>
						<path fill="#D05879" d="M96.736,157.094L96.736,157.094c-6.305,0-11.416-5.111-11.416-11.416v-13.327h22.831v13.327
							C108.151,151.982,103.04,157.094,96.736,157.094z"/>
					</g>
					<g>
						<path fill="#9C425B" d="M96.736,157.74c-6.651,0-12.062-5.411-12.062-12.062v-13.975h24.124v13.975
							C108.798,152.329,103.387,157.74,96.736,157.74z M85.967,132.997v12.682c0,5.938,4.831,10.769,10.77,10.769
							c5.938,0,10.769-4.831,10.769-10.769v-12.682H85.967z"/>
					</g>
				</g>
				<g>
					<g>
						<path fill="#D05879" d="M142.55,157.094L142.55,157.094c-6.304,0-11.415-5.111-11.415-11.416v-13.327h22.831v13.327
							C153.966,151.982,148.854,157.094,142.55,157.094z"/>
					</g>
					<g>
						<path fill="#9C425B" d="M142.55,157.74c-6.65,0-12.062-5.411-12.062-12.062v-13.975h24.124v13.975
							C154.612,152.329,149.201,157.74,142.55,157.74z M131.781,132.997v12.682c0,5.938,4.831,10.769,10.769,10.769
							s10.77-4.831,10.77-10.769v-12.682H131.781z"/>
					</g>
				</g>
				<g>
					<g>
						<path fill="#D05879" d="M188.364,157.094L188.364,157.094c-6.305,0-11.415-5.111-11.415-11.416v-13.327h22.831v13.327
							C199.78,151.982,194.669,157.094,188.364,157.094z"/>
					</g>
					<g>
						<path fill="#9C425B" d="M188.364,157.74c-6.65,0-12.062-5.411-12.062-12.062v-13.975h24.124v13.975
							C200.427,152.329,195.016,157.74,188.364,157.74z M177.596,132.997v12.682c0,5.938,4.831,10.769,10.769,10.769
							c5.938,0,10.77-4.831,10.77-10.769v-12.682H177.596z"/>
					</g>
				</g>
				<g>
					<g>
						<path fill="#D05879" d="M234.179,157.094L234.179,157.094c-6.305,0-11.415-5.111-11.415-11.416v-13.327h22.83v13.327
							C245.594,151.982,240.483,157.094,234.179,157.094z"/>
					</g>
					<g>
						<path fill="#9C425B" d="M234.179,157.74c-6.65,0-12.062-5.411-12.062-12.062v-13.975h24.123v13.975
							C246.24,152.329,240.83,157.74,234.179,157.74z M223.41,132.997v12.682c0,5.938,4.831,10.769,10.769,10.769
							s10.769-4.831,10.769-10.769v-12.682H223.41z"/>
					</g>
				</g>
				<g>
					<g>
						<path fill="#D05879" d="M279.993,157.094L279.993,157.094c-6.305,0-11.415-5.111-11.415-11.416v-13.327h22.83v13.327
							C291.408,151.982,286.298,157.094,279.993,157.094z"/>
					</g>
					<g>
						<path fill="#9C425B" d="M279.993,157.74c-6.651,0-12.062-5.411-12.062-12.062v-13.975h24.124v13.975
							C292.055,152.329,286.644,157.74,279.993,157.74z M269.224,132.997v12.682c0,5.938,4.831,10.769,10.77,10.769
							c5.938,0,10.769-4.831,10.769-10.769v-12.682H269.224z"/>
					</g>
				</g>
				<g>
					<g>
						<path fill="#D05879" d="M325.808,157.094L325.808,157.094c-6.305,0-11.416-5.111-11.416-11.416v-13.327h22.831v13.327
							C337.223,151.982,332.112,157.094,325.808,157.094z"/>
					</g>
					<g>
						<path fill="#9C425B" d="M325.808,157.74c-6.651,0-12.062-5.411-12.062-12.062v-13.975h24.124v13.975
							C337.869,152.329,332.458,157.74,325.808,157.74z M315.038,132.997v12.682c0,5.938,4.831,10.769,10.77,10.769
							c5.938,0,10.769-4.831,10.769-10.769v-12.682H315.038z"/>
					</g>
				</g>
				<g>
					<g>
						<path fill="#D05879" d="M371.622,157.094L371.622,157.094c-6.305,0-11.416-5.111-11.416-11.416v-13.327h22.831v13.327
							C383.037,151.982,377.926,157.094,371.622,157.094z"/>
					</g>
					<g>
						<path fill="#9C425B" d="M371.622,157.74c-6.651,0-12.062-5.411-12.062-12.062v-13.975h24.124v13.975
							C383.684,152.329,378.272,157.74,371.622,157.74z M360.853,132.997v12.682c0,5.938,4.831,10.769,10.77,10.769
							c5.938,0,10.769-4.831,10.769-10.769v-12.682H360.853z"/>
					</g>
				</g>
				<g>
					<g>
						<path fill="#D05879" d="M417.438,157.094L417.438,157.094c-6.306,0-11.416-5.111-11.416-11.416v-13.327h22.83v13.327
							C428.852,151.982,423.74,157.094,417.438,157.094z"/>
					</g>
					<g>
						<path fill="#9C425B" d="M417.438,157.74c-6.651,0-12.062-5.411-12.062-12.062v-13.975h24.124v13.975
							C429.498,152.329,424.087,157.74,417.438,157.74z M406.667,132.997v12.682c0,5.938,4.831,10.769,10.77,10.769
							s10.77-4.831,10.77-10.769v-12.682H406.667z"/>
					</g>
				</g>
				<g>
					<path fill="#D5DEF4" d="M119.72,157.094L119.72,157.094c-6.305,0-11.416-5.111-11.416-11.416v-13.327h22.831v13.327
						C131.135,151.982,126.024,157.094,119.72,157.094z"/>
				</g>
				<g>
					<path fill="#D5DEF4" d="M165.533,157.094L165.533,157.094c-6.304,0-11.415-5.111-11.415-11.416v-13.327h22.831v13.327
						C176.949,151.982,171.838,157.094,165.533,157.094z"/>
				</g>
				<g>
					<path fill="#D5DEF4" d="M211.348,157.094L211.348,157.094c-6.305,0-11.415-5.111-11.415-11.416v-13.327h22.831v13.327
						C222.764,151.982,217.652,157.094,211.348,157.094z"/>
				</g>
				<g>
					<path fill="#D5DEF4" d="M257.162,157.094L257.162,157.094c-6.305,0-11.415-5.111-11.415-11.416v-13.327h22.831v13.327
						C268.578,151.982,263.467,157.094,257.162,157.094z"/>
				</g>
				<g>
					<path fill="#D5DEF4" d="M302.977,157.094L302.977,157.094c-6.305,0-11.415-5.111-11.415-11.416v-13.327h22.83v13.327
						C314.392,151.982,309.281,157.094,302.977,157.094z"/>
				</g>
				<g>
					<path fill="#D5DEF4" d="M348.791,157.094L348.791,157.094c-6.305,0-11.416-5.111-11.416-11.416v-13.327h22.831v13.327
						C360.206,151.982,355.096,157.094,348.791,157.094z"/>
				</g>
				<g>
					<path fill="#D5DEF4" d="M394.605,157.094L394.605,157.094c-6.305,0-11.416-5.111-11.416-11.416v-13.327h22.831v13.327
						C406.021,151.982,400.91,157.094,394.605,157.094z"/>
				</g>
				<g>
					<path fill="#D5DEF4" d="M440.42,157.094L440.42,157.094c-6.305,0-11.416-5.111-11.416-11.416v-13.327h22.831v13.327
						C451.835,151.982,446.724,157.094,440.42,157.094z"/>
				</g>
				<g>
					<g>
						<path fill="#5679D3" d="M119.72,157.74c-6.651,0-12.062-5.411-12.062-12.062v-13.975h24.124v13.975
							C131.781,152.329,126.37,157.74,119.72,157.74z M108.95,132.997v12.682c0,5.938,4.831,10.769,10.77,10.769
							c5.938,0,10.769-4.831,10.769-10.769v-12.682H108.95z"/>
					</g>
					<g>
						<path fill="#5679D3" d="M165.533,157.861c-6.717,0-12.183-5.465-12.183-12.183V132.35c0-0.424,0.344-0.768,0.768-0.768h22.831
							c0.424,0,0.768,0.344,0.768,0.768v13.328C177.717,152.396,172.251,157.861,165.533,157.861z M154.886,133.118v12.561
							c0,5.871,4.776,10.647,10.647,10.647c5.872,0,10.648-4.776,10.648-10.647v-12.561H154.886z"/>
					</g>
					<g>
						<path fill="#5679D3" d="M211.348,157.861c-6.718,0-12.183-5.465-12.183-12.183V132.35c0-0.424,0.344-0.768,0.768-0.768h22.831
							c0.424,0,0.768,0.344,0.768,0.768v13.328C223.531,152.396,218.065,157.861,211.348,157.861z M200.7,133.118v12.561
							c0,5.871,4.776,10.647,10.647,10.647c5.872,0,10.648-4.776,10.648-10.647v-12.561H200.7z"/>
					</g>
					<g>
						<path fill="#5679D3" d="M257.162,157.861c-6.718,0-12.183-5.465-12.183-12.183V132.35c0-0.424,0.344-0.768,0.768-0.768h22.83
							c0.424,0,0.768,0.344,0.768,0.768v13.328C269.345,152.396,263.88,157.861,257.162,157.861z M246.515,133.118v12.561
							c0,5.871,4.776,10.647,10.647,10.647s10.647-4.776,10.647-10.647v-12.561H246.515z"/>
					</g>
					<g>
						<path fill="#5679D3" d="M302.977,157.861c-6.718,0-12.183-5.465-12.183-12.183V132.35c0-0.424,0.344-0.768,0.768-0.768h22.83
							c0.424,0,0.768,0.344,0.768,0.768v13.328C315.159,152.396,309.694,157.861,302.977,157.861z M292.329,133.118v12.561
							c0,5.871,4.776,10.647,10.647,10.647s10.647-4.776,10.647-10.647v-12.561H292.329z"/>
					</g>
					<g>
						<path fill="#5679D3" d="M348.791,157.861c-6.718,0-12.184-5.465-12.184-12.183V132.35c0-0.424,0.344-0.768,0.768-0.768h22.831
							c0.424,0,0.768,0.344,0.768,0.768v13.328C360.974,152.396,355.509,157.861,348.791,157.861z M338.143,133.118v12.561
							c0,5.871,4.776,10.647,10.648,10.647c5.871,0,10.647-4.776,10.647-10.647v-12.561H338.143z"/>
					</g>
					<g>
						<path fill="#5679D3" d="M394.605,157.861c-6.718,0-12.184-5.465-12.184-12.183V132.35c0-0.424,0.344-0.768,0.768-0.768h22.831
							c0.425,0,0.769,0.344,0.769,0.768v13.328C406.788,152.396,401.322,157.861,394.605,157.861z M383.957,133.118v12.561
							c0,5.871,4.776,10.647,10.648,10.647c5.871,0,10.647-4.776,10.647-10.647v-12.561H383.957z"/>
					</g>
					<g>
						<path fill="#5679D3" d="M440.42,157.861c-6.718,0-12.184-5.465-12.184-12.183V132.35c0-0.424,0.344-0.768,0.768-0.768h22.831
							c0.424,0,0.769,0.344,0.769,0.768v13.328C452.603,152.396,447.138,157.861,440.42,157.861z M429.771,133.118v12.561
							c0,5.871,4.775,10.647,10.647,10.647c5.871,0,10.647-4.776,10.647-10.647v-12.561H429.771z"/>
					</g>
				</g>
			</g>
		</g>
		<g>
			<g>
				<rect x="111.558" y="77.063" fill="#5679D3" width="322.777" height="5.511"/>
			</g>
			<g>
				<path fill="#214296" d="M434.981,83.221h-324.07v-6.804h324.07V83.221z M112.204,81.928h321.484V77.71H112.204V81.928z"/>
			</g>
		</g>
		<g>
			<g>
				<path fill="#D97994" d="M439.41,279.438H106.482c-3.904,0-7.069-3.164-7.069-7.068l0,0c0-3.904,3.165-7.069,7.069-7.069H439.41
					c3.904,0,7.068,3.165,7.068,7.069l0,0C446.479,276.274,443.314,279.438,439.41,279.438z"/>
			</g>
			<g>
				<path fill="#D05879" d="M439.41,280.11H106.481c-4.268,0-7.739-3.473-7.739-7.74s3.472-7.74,7.739-7.74H439.41
					c4.268,0,7.74,3.473,7.74,7.74S443.678,280.11,439.41,280.11z M106.481,265.972c-3.528,0-6.398,2.87-6.398,6.398
					c0,3.527,2.87,6.398,6.398,6.398H439.41c3.528,0,6.397-2.871,6.397-6.398c0-3.528-2.869-6.398-6.397-6.398H106.481z"/>
			</g>
		</g>
		<g>
			<g>
				<rect x="467.893" y="226.865" fill="#D97994" width="26.771" height="6.65"/>
			</g>
			<g>
				<path fill="#D05879" d="M495.335,234.187h-28.114v-7.992h28.114V234.187z M468.562,232.845h25.431v-5.309h-25.431V232.845z"/>
			</g>
		</g>
		<g>
			<g>
				<rect x="772.701" y="258.254" fill="#EEE0CB" width="22.461" height="39.138"/>
			</g>
			<g>
				<path fill="#BAA898" d="M795.808,298.038h-23.753v-40.432h23.753V298.038z M773.348,296.745h21.167v-37.846h-21.167V296.745z"/>
			</g>
		</g>
		<g>
			<g>
				<rect x="81.945" y="325.088" fill="#D97994" width="22.46" height="39.137"/>
			</g>
			<g>
				<path fill="#D05879" d="M105.075,364.896H81.274v-40.479h23.801V364.896z M82.615,363.554h21.119v-37.795H82.615V363.554z"/>
			</g>
		</g>
	</g>
</g>
<g id="Layer_1_1_">
</g>
</svg>
