<?xml version="1.0" encoding="utf-8"?>
<!-- Generator: Adobe Illustrator 14.0.0, SVG Export Plug-In . SVG Version: 6.00 Build 43363)  -->
<!DOCTYPE svg PUBLIC "-//W3C//DTD SVG 1.1//EN" "http://www.w3.org/Graphics/SVG/1.1/DTD/svg11.dtd">
<svg version="1.1" id="Layer_1" xmlns="http://www.w3.org/2000/svg" xmlns:xlink="http://www.w3.org/1999/xlink" x="0px" y="0px"
	 width="95px" height="190px" viewBox="0 0 95 190" enable-background="new 0 0 95 190" xml:space="preserve">
<g id="Layer_4">
</g>
<g id="Layer_1_1_">
</g>
<g>
	<path fill="#2C58C8" stroke="#FFFFFF" d="M47.212,37.497c8.067,0,14.597-6.529,14.597-14.59c0-8.064-6.529-14.596-14.597-14.596
		c-8.047,0-14.591,6.531-14.591,14.596C32.621,30.968,39.165,37.497,47.212,37.497"/>
	<path fill="#2C58C8" stroke="#FFFFFF" d="M52.305,44.456l-11.164,0.141C16.872,47.442,9,75.524,11.23,96.932
		c0.963,9.268,15.558,9.358,14.574,0C25,89.136,25.347,77.356,29.492,68.979c0,0-0.032,80.457-1.044,104.664
		c-0.445,10.75,16.234,10.703,16.68,0c0.789-18.975,0.979-37.942,1.028-56.92c0.789,0.049,1.579,0.049,2.372,0
		c0.047,18.978,0.234,37.961,1.015,56.92c0.438,10.703,17.121,10.75,16.681,0c-0.994-24.207-1.707-95.748-1.6-106.264
		c4.98,8.412,5.423,21.234,4.566,29.551c-0.979,9.342,13.611,9.25,14.58,0C86.044,75.063,77.791,46.257,52.305,44.456"/>
</g>
</svg>
