<?xml version="1.0" encoding="utf-8"?>
<!-- Generator: Adobe Illustrator 14.0.0, SVG Export Plug-In . SVG Version: 6.00 Build 43363)  -->
<!DOCTYPE svg PUBLIC "-//W3C//DTD SVG 1.1//EN" "http://www.w3.org/Graphics/SVG/1.1/DTD/svg11.dtd">
<svg version="1.1" id="Layer_1" xmlns="http://www.w3.org/2000/svg" xmlns:xlink="http://www.w3.org/1999/xlink" x="0px" y="0px"
	 width="95px" height="190px" viewBox="0 0 95 190" enable-background="new 0 0 95 190" xml:space="preserve">
<g id="Layer_4">
</g>
<g id="Layer_1_1_">
</g>
<g>
	<path fill="#D05879" stroke="#3A3A3A" d="M83.771,17.385c-0.97-9.248-15.562-9.342-14.58,0c0.85,8.273-0.98,21.488-5.901,29.904
		c-3.237-1.545-6.884-2.545-10.985-2.834l-2.551,0.033l-0.262,0.002l-5.211,0.066l-3.139,0.039
		c-3.154,0.371-6.023,1.178-8.639,2.332c-6.583-8.271-7.497-21.807-6.697-29.543c0.983-9.357-13.611-9.264-14.575,0
		c-1.824,17.51,3.117,39.477,18.253,48.455c-0.038,23.713-0.214,88.183-1.035,107.806c-0.445,10.75,16.235,10.701,16.68,0
		c0.79-18.976,0.98-37.944,1.028-56.922c0.79,0.051,1.579,0.051,2.372,0c0.045,18.978,0.234,37.963,1.012,56.922
		c0.441,10.701,17.121,10.75,16.68,0c-0.826-20.115-1.459-81.188-1.586-107.302C80.462,57.713,85.627,35.24,83.771,17.385"/>
	<path fill="#D05879" stroke="#3A3A3A" d="M47.213,37.498c8.066,0,14.596-6.529,14.596-14.592c0-8.063-6.529-14.595-14.596-14.595
		c-8.047,0-14.591,6.533-14.591,14.596C32.622,30.97,39.166,37.498,47.213,37.498"/>
</g>
</svg>
