<?xml version="1.0" encoding="utf-8"?>
<!-- Generator: Adobe Illustrator 14.0.0, SVG Export Plug-In . SVG Version: 6.00 Build 43363)  -->
<!DOCTYPE svg PUBLIC "-//W3C//DTD SVG 1.1//EN" "http://www.w3.org/Graphics/SVG/1.1/DTD/svg11.dtd">
<svg version="1.1" id="Layer_1" xmlns="http://www.w3.org/2000/svg" xmlns:xlink="http://www.w3.org/1999/xlink" x="0px" y="0px"
	 width="413.072px" height="419.454px" viewBox="0 -329.079 413.072 419.454" enable-background="new 0 -329.079 413.072 419.454"
	 xml:space="preserve">
<g id="Layer_4">
</g>
<g id="Layer_1_1_">
</g>
<g>
	<g>
		<path fill="#D5DEF4" d="M206.536-255.546c75.217,0,136.195,60.979,136.195,136.195c0,75.215-60.979,136.193-136.195,136.193
			S70.341-44.136,70.341-119.351C70.341-194.568,131.319-255.546,206.536-255.546z"/>
	</g>
</g>
<g>
	<g>
		<circle fill="#5679D3" cx="206.536" cy="-119.352" r="30.265"/>
	</g>
	<g>
		<path fill="#2C58C8" d="M206.536-88.586c-16.964,0-30.766-13.804-30.766-30.767c0-16.964,13.802-30.766,30.766-30.766
			s30.766,13.802,30.766,30.766C237.302-102.39,223.5-88.586,206.536-88.586z M206.536-149.117
			c-16.412,0-29.766,13.354-29.766,29.766c0,16.411,13.354,29.766,29.766,29.766c16.411,0,29.766-13.354,29.766-29.767
			C236.302-135.766,222.947-149.117,206.536-149.117z"/>
	</g>
</g>
</svg>
